<?xml version="1.0" standalone="no"?>
<!DOCTYPE svg PUBLIC "-//W3C//DTD SVG 20010904//EN"
 "http://www.w3.org/TR/2001/REC-SVG-20010904/DTD/svg10.dtd">
<svg version="1.0" xmlns="http://www.w3.org/2000/svg"
 width="500.000000pt" height="500.000000pt" viewBox="0 0 500.000000 500.000000"
 preserveAspectRatio="xMidYMid meet">

<g transform="translate(0.000000,500.000000) scale(0.100000,-0.100000)"
fill="#000000" stroke="none">
<path d="M1980 3721 l-505 -368 -2 -979 -3 -979 292 -240 c160 -132 295 -241
300 -243 4 -2 8 457 8 1020 0 971 1 1024 18 1034 10 6 104 78 210 159 124 94
198 145 208 141 8 -3 107 -76 220 -161 l204 -156 2 -1019 3 -1020 130 106 c72
59 203 167 293 241 l162 134 0 982 0 982 -98 71 c-665 484 -916 664 -925 664
-7 -1 -239 -167 -517 -369z"/>
</g>
</svg>
